<svg width="9" height="9" viewBox="0 0 9 9" fill="none" xmlns="http://www.w3.org/2000/svg">
<path d="M0.124835 0.624752C0.124835 0.34861 0.348639 0.124805 0.624782 0.124805L5.1243 0.124806C5.40044 0.124806 5.62425 0.34861 5.62425 0.624752C5.62425 0.900894 5.40044 1.1247 5.1243 1.1247L1.83184 1.1247L7.1959 6.48877L7.1959 3.1963C7.1959 2.92016 7.41971 2.69635 7.69585 2.69635C7.97199 2.69635 8.1958 2.92016 8.1958 3.1963L8.1958 7.69582C8.1958 7.97196 7.97199 8.19577 7.69585 8.19577L3.19633 8.19577C2.92019 8.19577 2.69638 7.97196 2.69638 7.69582C2.69638 7.41968 2.92019 7.19587 3.19633 7.19587L6.4888 7.19587L1.12473 1.83181V5.12427C1.12473 5.40041 0.900924 5.62422 0.624782 5.62422C0.348639 5.62422 0.124835 5.40041 0.124835 5.12427V0.624752Z" fill="currentColor"/>
<path d="M0.624782 0.124805L0.624782 -0.000194614L0.624782 0.124805ZM5.1243 0.124806V0.249806V0.124806ZM5.1243 1.1247V1.2497V1.1247ZM1.83184 1.1247L1.83184 0.999699L1.53006 0.999699L1.74345 1.21309L1.83184 1.1247ZM7.1959 6.48877L7.10751 6.57715L7.3209 6.79054V6.48877H7.1959ZM7.1959 3.1963H7.3209H7.1959ZM8.1958 3.1963H8.3208H8.1958ZM8.1958 7.69582H8.0708H8.1958ZM7.69585 8.19577V8.07077V8.19577ZM3.19633 8.19577L3.19633 8.32077L3.19633 8.32077L3.19633 8.19577ZM3.19633 7.19587L3.19633 7.32087L3.19633 7.19587ZM6.4888 7.19587V7.32087H6.79057L6.57718 7.10748L6.4888 7.19587ZM1.12473 1.83181L1.21312 1.74342L0.999728 1.53003L0.999728 1.83181L1.12473 1.83181ZM0.124835 0.624752L0.249835 0.624752C0.249835 0.417645 0.417675 0.249805 0.624782 0.249806L0.624782 0.124805L0.624782 -0.000194614C0.279604 -0.00019462 -0.000164847 0.279574 -0.000164842 0.624752L0.124835 0.624752ZM0.624782 0.124805L0.624782 0.249806L5.1243 0.249806V0.124806V-0.00019462L0.624782 -0.000194614L0.624782 0.124805ZM5.1243 0.124806V0.249806C5.33141 0.249805 5.49925 0.417645 5.49925 0.624752H5.62425H5.74925C5.74925 0.279574 5.46948 -0.00019462 5.1243 -0.00019462V0.124806ZM5.62425 0.624752H5.49925C5.49925 0.831859 5.33141 0.999699 5.1243 0.999699V1.1247V1.2497C5.46948 1.2497 5.74925 0.96993 5.74925 0.624752H5.62425ZM5.1243 1.1247V0.999699H1.83184L1.83184 1.1247L1.83184 1.2497L5.1243 1.2497V1.1247ZM1.83184 1.1247L1.74345 1.21309L7.10751 6.57715L7.1959 6.48877L7.28429 6.40038L1.92022 1.03631L1.83184 1.1247ZM7.1959 6.48877H7.3209L7.3209 3.1963H7.1959H7.0709L7.0709 6.48877H7.1959ZM7.1959 3.1963H7.3209C7.3209 2.98919 7.48874 2.82135 7.69585 2.82135V2.69635V2.57135C7.35067 2.57135 7.0709 2.85112 7.0709 3.1963H7.1959ZM7.69585 2.69635V2.82135C7.90296 2.82135 8.0708 2.98919 8.0708 3.1963H8.1958H8.3208C8.3208 2.85112 8.04103 2.57135 7.69585 2.57135V2.69635ZM8.1958 3.1963H8.0708L8.0708 7.69582H8.1958H8.3208L8.3208 3.1963H8.1958ZM8.1958 7.69582H8.0708C8.0708 7.90293 7.90296 8.07077 7.69585 8.07077V8.19577V8.32077C8.04103 8.32077 8.3208 8.041 8.3208 7.69582H8.1958ZM7.69585 8.19577V8.07077L3.19633 8.07077L3.19633 8.19577L3.19633 8.32077L7.69585 8.32077V8.19577ZM3.19633 8.19577L3.19633 8.07077C2.98922 8.07077 2.82138 7.90293 2.82138 7.69582L2.69638 7.69582L2.57138 7.69582C2.57138 8.041 2.85115 8.32077 3.19633 8.32077L3.19633 8.19577ZM2.69638 7.69582L2.82138 7.69582C2.82138 7.48871 2.98922 7.32087 3.19633 7.32087L3.19633 7.19587L3.19633 7.07087C2.85115 7.07087 2.57138 7.35064 2.57138 7.69582L2.69638 7.69582ZM3.19633 7.19587L3.19633 7.32087L6.4888 7.32087V7.19587V7.07087L3.19633 7.07087L3.19633 7.19587ZM6.4888 7.19587L6.57718 7.10748L1.21312 1.74342L1.12473 1.83181L1.03634 1.92019L6.40041 7.28426L6.4888 7.19587ZM1.12473 1.83181L0.999728 1.83181V5.12427L1.12473 5.12427L1.24973 5.12427V1.83181L1.12473 1.83181ZM1.12473 5.12427L0.999728 5.12427C0.999728 5.33138 0.831889 5.49922 0.624782 5.49922L0.624782 5.62422L0.624782 5.74922C0.96996 5.74922 1.24973 5.46945 1.24973 5.12427L1.12473 5.12427ZM0.624782 5.62422L0.624782 5.49922C0.417675 5.49922 0.249835 5.33138 0.249835 5.12427L0.124835 5.12427L-0.000164842 5.12427C-0.000164847 5.46945 0.279604 5.74922 0.624782 5.74922L0.624782 5.62422ZM0.124835 5.12427L0.249835 5.12427V0.624752L0.124835 0.624752L-0.000164842 0.624752V5.12427L0.124835 5.12427Z" fill="currentColor"/>
</svg>
