<svg width="8" height="8" viewBox="0 0 8 8" fill="none" xmlns="http://www.w3.org/2000/svg">
<path d="M0.978553 4.16002L3.30668 1.83189C3.30668 1.83189 3.30537 6.44453 3.30668 7.12842C3.30799 7.81231 4.30797 7.80354 4.30668 7.12842C4.30539 6.4533 4.30668 1.83189 4.30668 1.83189L6.6348 4.16002C6.83007 4.35528 7.14657 4.35528 7.34183 4.16002C7.5371 3.96476 7.5371 3.64825 7.34183 3.45299L4.16019 0.271346C3.96493 0.0760844 3.64842 0.0760845 3.45316 0.271346L0.271522 3.45299C0.0762597 3.64825 0.0762598 3.96476 0.271522 4.16002C0.466784 4.35528 0.783291 4.35528 0.978553 4.16002Z" fill="currentColor"/>
<path d="M3.30668 1.83189L3.43168 1.83193L3.43176 1.53003L3.21829 1.7435L3.30668 1.83189ZM0.978553 4.16002L0.890165 4.07163L0.890165 4.07163L0.978553 4.16002ZM0.271522 3.45299L0.183133 3.3646L0.271522 3.45299ZM3.45316 0.271346L3.36477 0.182958L3.45316 0.271346ZM4.16019 0.271346L4.24858 0.182958L4.24858 0.182958L4.16019 0.271346ZM7.34183 3.45299L7.25345 3.54138L7.25345 3.54138L7.34183 3.45299ZM7.34183 4.16002L7.43022 4.24841H7.43022L7.34183 4.16002ZM6.6348 4.16002L6.54641 4.24841L6.6348 4.16002ZM4.30668 1.83189L4.39507 1.7435L4.18176 1.5302L4.18168 1.83186L4.30668 1.83189ZM4.30668 7.12842L4.43168 7.12818L4.30668 7.12842ZM3.30668 1.83189L3.21829 1.7435L0.890165 4.07163L0.978553 4.16002L1.06694 4.24841L3.39507 1.92028L3.30668 1.83189ZM0.978553 4.16002L0.890165 4.07163C0.743718 4.21808 0.506356 4.21808 0.35991 4.07163L0.271522 4.16002L0.183133 4.24841C0.427211 4.49249 0.822864 4.49249 1.06694 4.24841L0.978553 4.16002ZM0.271522 4.16002L0.35991 4.07163C0.213463 3.92518 0.213463 3.68782 0.35991 3.54138L0.271522 3.45299L0.183133 3.3646C-0.060944 3.60868 -0.0609439 4.00433 0.183133 4.24841L0.271522 4.16002ZM0.271522 3.45299L0.35991 3.54138L3.54155 0.359735L3.45316 0.271346L3.36477 0.182958L0.183133 3.3646L0.271522 3.45299ZM3.45316 0.271346L3.54155 0.359735C3.688 0.213288 3.92536 0.213288 4.07181 0.359735L4.16019 0.271346L4.24858 0.182958C4.0045 -0.0611193 3.60885 -0.0611192 3.36477 0.182958L3.45316 0.271346ZM4.16019 0.271346L4.0718 0.359735L7.25345 3.54138L7.34183 3.45299L7.43022 3.3646L4.24858 0.182958L4.16019 0.271346ZM7.34183 3.45299L7.25345 3.54138C7.39989 3.68782 7.39989 3.92518 7.25345 4.07163L7.34183 4.16002L7.43022 4.24841C7.6743 4.00433 7.6743 3.60868 7.43022 3.3646L7.34183 3.45299ZM7.34183 4.16002L7.25345 4.07163C7.107 4.21808 6.86964 4.21808 6.72319 4.07163L6.6348 4.16002L6.54641 4.24841C6.79049 4.49249 7.18615 4.49249 7.43022 4.24841L7.34183 4.16002ZM6.6348 4.16002L6.72319 4.07163L4.39507 1.7435L4.30668 1.83189L4.21829 1.92028L6.54641 4.24841L6.6348 4.16002ZM3.30668 7.12842L3.43168 7.12818C3.43102 6.7864 3.43102 5.46245 3.43119 4.22371C3.43127 3.6044 3.43139 3.00645 3.43149 2.56333C3.43154 2.34177 3.43159 2.15892 3.43162 2.03146C3.43164 1.96773 3.43165 1.91785 3.43166 1.8839C3.43167 1.86692 3.43167 1.85393 3.43167 1.84518C3.43168 1.84081 3.43168 1.83749 3.43168 1.83527C3.43168 1.83416 3.43168 1.83333 3.43168 1.83277C3.43168 1.83249 3.43168 1.83228 3.43168 1.83214C3.43168 1.83207 3.43168 1.83202 3.43168 1.83198C3.43168 1.83195 3.43168 1.83193 3.30668 1.83189C3.18168 1.83186 3.18168 1.83188 3.18168 1.83191C3.18168 1.83195 3.18168 1.832 3.18168 1.83207C3.18168 1.83221 3.18168 1.83242 3.18168 1.8327C3.18168 1.83326 3.18168 1.83409 3.18168 1.8352C3.18168 1.83742 3.18168 1.84074 3.18167 1.84511C3.18167 1.85386 3.18167 1.86685 3.18166 1.88383C3.18165 1.91778 3.18164 1.96766 3.18162 2.0314C3.18159 2.15886 3.18154 2.34171 3.18149 2.56327C3.18139 3.0064 3.18127 3.60435 3.18119 4.22368C3.18102 5.46223 3.18102 6.78655 3.18168 7.12866L3.30668 7.12842ZM4.30668 1.83189C4.18168 1.83186 4.18168 1.83188 4.18168 1.83191C4.18168 1.83195 4.18168 1.832 4.18168 1.83207C4.18168 1.83221 4.18168 1.83242 4.18168 1.8327C4.18168 1.83326 4.18168 1.8341 4.18168 1.83521C4.18168 1.83743 4.18168 1.84075 4.18167 1.84514C4.18167 1.8539 4.18167 1.86692 4.18166 1.88392C4.18165 1.91794 4.18164 1.96791 4.18162 2.03176C4.18159 2.15944 4.18155 2.3426 4.1815 2.56451C4.1814 3.00832 4.18127 3.60709 4.18119 4.22697C4.18103 5.46662 4.18103 6.79093 4.18168 7.12866L4.30668 7.12842L4.43168 7.12818C4.43103 6.79078 4.43103 5.46684 4.43119 4.227C4.43127 3.60714 4.43139 3.00837 4.4315 2.56456C4.43155 2.34266 4.43159 2.1595 4.43162 2.03182C4.43164 1.96798 4.43165 1.918 4.43166 1.88399C4.43167 1.86699 4.43167 1.85397 4.43167 1.84521C4.43168 1.84082 4.43168 1.8375 4.43168 1.83528C4.43168 1.83417 4.43168 1.83333 4.43168 1.83277C4.43168 1.83249 4.43168 1.83228 4.43168 1.83214C4.43168 1.83207 4.43168 1.83202 4.43168 1.83198C4.43168 1.83195 4.43168 1.83193 4.30668 1.83189ZM4.30668 7.12842L4.18168 7.12866C4.18194 7.2641 4.13312 7.35687 4.06708 7.41691C3.99891 7.47888 3.90483 7.51262 3.80711 7.51305C3.7094 7.51348 3.61553 7.48059 3.54744 7.4191C3.48146 7.35952 3.43194 7.2663 3.43168 7.12818L3.30668 7.12842L3.18168 7.12866C3.18207 7.33248 3.25804 7.49462 3.37989 7.60465C3.49962 7.71276 3.65591 7.76371 3.8082 7.76305C3.96048 7.76238 4.11623 7.71008 4.23524 7.6019C4.35637 7.49179 4.43207 7.3303 4.43168 7.12818L4.30668 7.12842Z" fill="currentColor"/>
</svg>
