<svg width="36" height="36" viewBox="0 0 36 36" fill="none" xmlns="http://www.w3.org/2000/svg">
<path d="M6.93 27.18C8.46 26.01 10.17 25.0875 12.06 24.4125C13.95 23.7375 15.93 23.4 18 23.4C20.07 23.4 22.05 23.7375 23.94 24.4125C25.83 25.0875 27.54 26.01 29.07 27.18C30.12 25.95 30.9375 24.555 31.5225 22.995C32.1075 21.435 32.4 19.77 32.4 18C32.4 14.01 30.9975 10.6125 28.1925 7.8075C25.3875 5.0025 21.99 3.6 18 3.6C14.01 3.6 10.6125 5.0025 7.8075 7.8075C5.0025 10.6125 3.6 14.01 3.6 18C3.6 19.77 3.8925 21.435 4.4775 22.995C5.0625 24.555 5.88 25.95 6.93 27.18ZM18 19.8C16.23 19.8 14.7375 19.1925 13.5225 17.9775C12.3075 16.7625 11.7 15.27 11.7 13.5C11.7 11.73 12.3075 10.2375 13.5225 9.0225C14.7375 7.8075 16.23 7.2 18 7.2C19.77 7.2 21.2625 7.8075 22.4775 9.0225C23.6925 10.2375 24.3 11.73 24.3 13.5C24.3 15.27 23.6925 16.7625 22.4775 17.9775C21.2625 19.1925 19.77 19.8 18 19.8ZM18 36C15.51 36 13.17 35.5275 10.98 34.5825C8.79 33.6375 6.885 32.355 5.265 30.735C3.645 29.115 2.3625 27.21 1.4175 25.02C0.4725 22.83 0 20.49 0 18C0 15.51 0.4725 13.17 1.4175 10.98C2.3625 8.79 3.645 6.885 5.265 5.265C6.885 3.645 8.79 2.3625 10.98 1.4175C13.17 0.4725 15.51 0 18 0C20.49 0 22.83 0.4725 25.02 1.4175C27.21 2.3625 29.115 3.645 30.735 5.265C32.355 6.885 33.6375 8.79 34.5825 10.98C35.5275 13.17 36 15.51 36 18C36 20.49 35.5275 22.83 34.5825 25.02C33.6375 27.21 32.355 29.115 30.735 30.735C29.115 32.355 27.21 33.6375 25.02 34.5825C22.83 35.5275 20.49 36 18 36ZM18 32.4C19.59 32.4 21.09 32.1675 22.5 31.7025C23.91 31.2375 25.2 30.57 26.37 29.7C25.2 28.83 23.91 28.1625 22.5 27.6975C21.09 27.2325 19.59 27 18 27C16.41 27 14.91 27.2325 13.5 27.6975C12.09 28.1625 10.8 28.83 9.63 29.7C10.8 30.57 12.09 31.2375 13.5 31.7025C14.91 32.1675 16.41 32.4 18 32.4ZM18 16.2C18.78 16.2 19.425 15.945 19.935 15.435C20.445 14.925 20.7 14.28 20.7 13.5C20.7 12.72 20.445 12.075 19.935 11.565C19.425 11.055 18.78 10.8 18 10.8C17.22 10.8 16.575 11.055 16.065 11.565C15.555 12.075 15.3 12.72 15.3 13.5C15.3 14.28 15.555 14.925 16.065 15.435C16.575 15.945 17.22 16.2 18 16.2Z" fill="currentColor"/>
</svg>
