<svg width="11" height="11" viewBox="0 0 11 11" fill="none" xmlns="http://www.w3.org/2000/svg">
<path d="M0 11V6.80952L2.2 5.87976V4.19048L4.95 2.88095V2.09524H3.85V1.04762H4.95V0H6.05V1.04762H7.15V2.09524H6.05V2.88095L8.8 4.19048V5.87976L11 6.80952V11H6.05V8.90476C6.05 8.75635 5.99729 8.63194 5.89188 8.53155C5.78646 8.43115 5.65583 8.38095 5.5 8.38095C5.34417 8.38095 5.21354 8.43115 5.10813 8.53155C5.00271 8.63194 4.95 8.75635 4.95 8.90476V11H0ZM1.1 9.95238H3.85V8.87857C3.85 8.43333 4.01042 8.05575 4.33125 7.74583C4.65208 7.43591 5.04167 7.28095 5.5 7.28095C5.95833 7.28095 6.34792 7.43591 6.66875 7.74583C6.98958 8.05575 7.15 8.43333 7.15 8.87857V9.95238H9.9V7.4381L7.7 6.49524V4.74048L5.5 3.66667L3.3 4.74048V6.49524L1.1 7.4381V9.95238ZM5.5 6.54762C5.72917 6.54762 5.92396 6.47123 6.08437 6.31845C6.24479 6.16568 6.325 5.98016 6.325 5.76191C6.325 5.54365 6.24479 5.35814 6.08437 5.20536C5.92396 5.05258 5.72917 4.97619 5.5 4.97619C5.27083 4.97619 5.07604 5.05258 4.91563 5.20536C4.75521 5.35814 4.675 5.54365 4.675 5.76191C4.675 5.98016 4.75521 6.16568 4.91563 6.31845C5.07604 6.47123 5.27083 6.54762 5.5 6.54762Z" fill="currentColor"/>
</svg>
