<svg width="9" height="11" viewBox="0 0 9 11" fill="none" xmlns="http://www.w3.org/2000/svg">
<path d="M1.125 6.36842C1.125 6.87018 1.22344 7.3454 1.42031 7.79408C1.61719 8.24276 1.89844 8.63596 2.26406 8.97368C2.25469 8.92544 2.25 8.88202 2.25 8.84342V8.71316C2.25 8.40439 2.30625 8.11491 2.41875 7.84474C2.53125 7.57456 2.69531 7.32851 2.91094 7.10658L4.5 5.5L6.08906 7.10658C6.30469 7.32851 6.46875 7.57456 6.58125 7.84474C6.69375 8.11491 6.75 8.40439 6.75 8.71316V8.84342C6.75 8.88202 6.74531 8.92544 6.73594 8.97368C7.10156 8.63596 7.38281 8.24276 7.57969 7.79408C7.77656 7.3454 7.875 6.87018 7.875 6.36842C7.875 5.88596 7.78828 5.43004 7.61484 5.00066C7.44141 4.57127 7.19062 4.18772 6.8625 3.85C6.675 3.97544 6.47813 4.06952 6.27188 4.13224C6.06563 4.19496 5.85469 4.22632 5.63906 4.22632C5.05781 4.22632 4.55391 4.02851 4.12734 3.63289C3.70078 3.23728 3.45469 2.75 3.38906 2.17105C3.02344 2.48947 2.7 2.81996 2.41875 3.1625C2.1375 3.50504 1.90078 3.85241 1.70859 4.20461C1.51641 4.5568 1.37109 4.91623 1.27266 5.28289C1.17422 5.64956 1.125 6.0114 1.125 6.36842ZM4.5 7.12105L3.69844 7.93158C3.59531 8.03772 3.51562 8.15833 3.45938 8.29342C3.40313 8.42851 3.375 8.56842 3.375 8.71316C3.375 9.02193 3.48516 9.28728 3.70547 9.50921C3.92578 9.73114 4.19063 9.8421 4.5 9.8421C4.80937 9.8421 5.07422 9.73114 5.29453 9.50921C5.51484 9.28728 5.625 9.02193 5.625 8.71316C5.625 8.55877 5.59688 8.41645 5.54063 8.28618C5.48438 8.15592 5.40469 8.03772 5.30156 7.93158L4.5 7.12105ZM4.5 0V1.91053C4.5 2.2386 4.61016 2.5136 4.83047 2.73553C5.05078 2.95746 5.32031 3.06842 5.63906 3.06842C5.80781 3.06842 5.96484 3.03224 6.11016 2.95987C6.25547 2.8875 6.38438 2.77895 6.49688 2.63421L6.75 2.31579C7.44375 2.72105 7.99219 3.28553 8.39531 4.00921C8.79844 4.73289 9 5.5193 9 6.36842C9 7.6614 8.56406 8.75658 7.69219 9.65395C6.82031 10.5513 5.75625 11 4.5 11C3.24375 11 2.17969 10.5513 1.30781 9.65395C0.435937 8.75658 0 7.6614 0 6.36842C0 5.12368 0.405469 3.94167 1.21641 2.82237C2.02734 1.70307 3.12188 0.762281 4.5 0Z" fill="currentColor"/>
</svg>
