<svg width="16" height="21" viewBox="0 0 16 21" fill="none" xmlns="http://www.w3.org/2000/svg">
<path d="M15.8777 7.60009C15.7946 7.43518 15.6674 7.29649 15.5103 7.19942C15.3532 7.10234 15.1723 7.05065 14.9877 7.05009H9.98765V1.05009C9.99839 0.830775 9.93663 0.614023 9.81193 0.433292C9.68723 0.252561 9.5065 0.117899 9.29766 0.0500919C9.09688 -0.0159649 8.88034 -0.0167072 8.67912 0.0479715C8.47789 0.11265 8.30234 0.239423 8.17765 0.410092L0.177655 11.4101C0.0774202 11.555 0.0172332 11.7237 0.00318503 11.8993C-0.0108631 12.0749 0.0217264 12.2511 0.0976546 12.4101C0.167576 12.5918 0.289043 12.7492 0.447144 12.8629C0.605246 12.9766 0.793102 13.0417 0.987654 13.0501H5.98765V19.0501C5.98781 19.261 6.05462 19.4664 6.17855 19.637C6.30247 19.8076 6.47717 19.9347 6.67765 20.0001C6.77813 20.0312 6.88249 20.0481 6.98765 20.0501C7.14544 20.0505 7.30108 20.0136 7.44186 19.9423C7.58264 19.8711 7.70456 19.7675 7.79765 19.6401L15.7977 8.64009C15.9054 8.49089 15.9699 8.31485 15.984 8.13135C15.9981 7.94785 15.9613 7.76402 15.8777 7.60009ZM7.98765 15.9701V12.0501C7.98765 11.7849 7.8823 11.5305 7.69476 11.343C7.50722 11.1554 7.25287 11.0501 6.98765 11.0501H2.98765L7.98765 4.13009V8.05009C7.98765 8.31531 8.09301 8.56966 8.28055 8.7572C8.46808 8.94473 8.72244 9.05009 8.98765 9.05009H12.9877L7.98765 15.9701Z" fill="currentColor"/>
</svg>
