<svg width="11" height="11" viewBox="0 0 11 11" fill="none" xmlns="http://www.w3.org/2000/svg">
<path d="M2.2 6.6H6.6V5.5H2.2V6.6ZM2.2 4.95H8.8V3.85H2.2V4.95ZM2.2 3.3H8.8V2.2H2.2V3.3ZM0 11V1.1C0 0.7975 0.107708 0.538542 0.323125 0.323125C0.538542 0.107708 0.7975 0 1.1 0H9.9C10.2025 0 10.4615 0.107708 10.6769 0.323125C10.8923 0.538542 11 0.7975 11 1.1V7.7C11 8.0025 10.8923 8.26146 10.6769 8.47688C10.4615 8.69229 10.2025 8.8 9.9 8.8H2.2L0 11ZM1.7325 7.7H9.9V1.1H1.1V8.31875L1.7325 7.7Z" fill="currentColor"/>
</svg>
