<svg width="380" height="380" viewBox="0 0 380 380" fill="none" xmlns="http://www.w3.org/2000/svg">
<path d="M267.056 33.189L273.717 19.7488L233.867 0.000240326L253.616 39.8498L267.056 33.189ZM33.1895 267.06L39.85 253.62L6.48499e-05 233.871L19.7495 273.721L33.1895 267.06ZM270.113 110.587C270.113 198.693 198.69 270.116 110.585 270.116V300.116C215.259 300.116 300.113 215.261 300.113 110.587H270.113ZM253.616 39.8498C264.172 61.15 270.113 85.1535 270.113 110.587H300.113C300.113 80.4297 293.059 51.8768 280.496 26.5281L253.616 39.8498ZM260.395 46.6291C313.045 72.721 349.189 126.984 349.189 189.662H379.189C379.189 115.149 336.188 50.7082 273.717 19.7488L260.395 46.6291ZM349.189 189.662C349.189 277.767 277.766 349.19 189.661 349.19V379.19C294.334 379.19 379.189 294.335 379.189 189.662H349.189ZM189.661 349.19C126.984 349.19 72.722 313.048 46.6294 260.399L19.7495 273.721C50.7094 336.191 115.15 379.19 189.661 379.19V349.19ZM110.585 270.116C85.152 270.116 61.1495 264.176 39.85 253.62L26.5289 280.5C51.8767 293.062 80.4285 300.116 110.585 300.116V270.116Z" fill="#252525"/>
</svg>
