<svg width="5" height="5" viewBox="0 0 5 5" fill="none" xmlns="http://www.w3.org/2000/svg">
<path d="M2.4875 4C2.575 4 2.64896 3.96979 2.70938 3.90937C2.76979 3.84896 2.8 3.775 2.8 3.6875C2.8 3.6 2.76979 3.52604 2.70938 3.46563C2.64896 3.40521 2.575 3.375 2.4875 3.375C2.4 3.375 2.32604 3.40521 2.26562 3.46563C2.20521 3.52604 2.175 3.6 2.175 3.6875C2.175 3.775 2.20521 3.84896 2.26562 3.90937C2.32604 3.96979 2.4 4 2.4875 4ZM2.2625 3.0375H2.725C2.725 2.9 2.74063 2.79167 2.77188 2.7125C2.80313 2.63333 2.89167 2.525 3.0375 2.3875C3.14583 2.27917 3.23125 2.17604 3.29375 2.07812C3.35625 1.98021 3.3875 1.8625 3.3875 1.725C3.3875 1.49167 3.30208 1.3125 3.13125 1.1875C2.96042 1.0625 2.75833 1 2.525 1C2.2875 1 2.09479 1.0625 1.94687 1.1875C1.79896 1.3125 1.69583 1.4625 1.6375 1.6375L2.05 1.8C2.07083 1.725 2.11771 1.64375 2.19062 1.55625C2.26354 1.46875 2.375 1.425 2.525 1.425C2.65833 1.425 2.75833 1.46146 2.825 1.53438C2.89167 1.60729 2.925 1.6875 2.925 1.775C2.925 1.85833 2.9 1.93646 2.85 2.00938C2.8 2.08229 2.7375 2.15 2.6625 2.2125C2.47917 2.375 2.36667 2.49792 2.325 2.58125C2.28333 2.66458 2.2625 2.81667 2.2625 3.0375ZM2.5 5C2.15417 5 1.82917 4.93437 1.525 4.80312C1.22083 4.67188 0.95625 4.49375 0.73125 4.26875C0.50625 4.04375 0.328125 3.77917 0.196875 3.475C0.065625 3.17083 0 2.84583 0 2.5C0 2.15417 0.065625 1.82917 0.196875 1.525C0.328125 1.22083 0.50625 0.95625 0.73125 0.73125C0.95625 0.50625 1.22083 0.328125 1.525 0.196875C1.82917 0.065625 2.15417 0 2.5 0C2.84583 0 3.17083 0.065625 3.475 0.196875C3.77917 0.328125 4.04375 0.50625 4.26875 0.73125C4.49375 0.95625 4.67188 1.22083 4.80312 1.525C4.93437 1.82917 5 2.15417 5 2.5C5 2.84583 4.93437 3.17083 4.80312 3.475C4.67188 3.77917 4.49375 4.04375 4.26875 4.26875C4.04375 4.49375 3.77917 4.67188 3.475 4.80312C3.17083 4.93437 2.84583 5 2.5 5ZM2.5 4.5C3.05833 4.5 3.53125 4.30625 3.91875 3.91875C4.30625 3.53125 4.5 3.05833 4.5 2.5C4.5 1.94167 4.30625 1.46875 3.91875 1.08125C3.53125 0.69375 3.05833 0.5 2.5 0.5C1.94167 0.5 1.46875 0.69375 1.08125 1.08125C0.69375 1.46875 0.5 1.94167 0.5 2.5C0.5 3.05833 0.69375 3.53125 1.08125 3.91875C1.46875 4.30625 1.94167 4.5 2.5 4.5Z" fill="currentColor"/>
</svg>
