<svg width="11" height="8" viewBox="0 0 11 8" fill="none" xmlns="http://www.w3.org/2000/svg">
<path d="M7 8C5.88333 8 4.9375 7.6125 4.1625 6.8375C3.3875 6.0625 3 5.11667 3 4C3 2.89167 3.3875 1.94792 4.1625 1.16875C4.9375 0.389583 5.88333 0 7 0C8.10833 0 9.05208 0.389583 9.83125 1.16875C10.6104 1.94792 11 2.89167 11 4C11 5.11667 10.6104 6.0625 9.83125 6.8375C9.05208 7.6125 8.10833 8 7 8ZM7 7C7.83333 7 8.54167 6.70833 9.125 6.125C9.70833 5.54167 10 4.83333 10 4C10 3.16667 9.70833 2.45833 9.125 1.875C8.54167 1.29167 7.83333 1 7 1C6.16667 1 5.45833 1.29167 4.875 1.875C4.29167 2.45833 4 3.16667 4 4C4 4.83333 4.29167 5.54167 4.875 6.125C5.45833 6.70833 6.16667 7 7 7ZM8.1375 5.8625L8.85 5.15L7.5 3.8V2H6.5V4.2125L8.1375 5.8625ZM0.5 2.5V1.5H2.5V2.5H0.5ZM0 4.5V3.5H2.5V4.5H0ZM0.5 6.5V5.5H2.5V6.5H0.5Z" fill="currentColor"/>
</svg>
