<svg width="23" height="20" viewBox="0 0 23 20" fill="none" xmlns="http://www.w3.org/2000/svg">
<path d="M11.4331 19.5884C11.132 19.7549 10.7664 19.7549 10.4653 19.5884L3.82898 15.9191C3.51053 15.743 3.31286 15.4079 3.31286 15.044V9.5531C3.31286 9.19119 3.11732 8.85753 2.80158 8.68066L0.513096 7.39868C-0.169982 7.01603 -0.168246 6.03233 0.516179 5.65209L10.4636 0.125759C10.7656 -0.0420316 11.1328 -0.0420316 11.4349 0.125759L22.4349 6.23687C22.7523 6.41324 22.9492 6.74786 22.9492 7.11103V14.4115C22.9492 14.9638 22.5015 15.4115 21.9492 15.4115H21.7674C21.2151 15.4115 20.7674 14.9638 20.7674 14.4115V7.74485L19.0969 8.68066C18.7811 8.85753 18.5856 9.19119 18.5856 9.5531V15.044C18.5856 15.4079 18.3879 15.743 18.0695 15.9191L11.4331 19.5884ZM10.4672 10.3686C10.7673 10.5337 11.1311 10.5337 11.4312 10.3686L18.4219 6.52262L11.4312 2.67669C11.1311 2.51158 10.7673 2.51158 10.4672 2.67669L3.47649 6.52262L10.4672 10.3686ZM10.4673 17.0631C10.7674 17.2282 11.1311 17.2282 11.4311 17.0631L15.8857 14.6131C16.2052 14.4374 16.4038 14.1016 16.4038 13.7369V10.1337L11.4379 12.9155C11.1343 13.0856 10.7641 13.0856 10.4605 12.9155L5.49467 10.1337V13.7369C5.49467 14.1016 5.69321 14.4374 6.01275 14.6131L10.4673 17.0631Z" fill="currentColor"/>
</svg>
