<svg width="28" height="29" viewBox="0 0 28 29" fill="none" xmlns="http://www.w3.org/2000/svg">
<path fill-rule="evenodd" clip-rule="evenodd" d="M17.4973 6.31615C20.5846 9.40344 20.5846 14.4089 17.4973 17.4962C14.41 20.5835 9.40449 20.5835 6.31721 17.4963C3.22993 14.409 3.22994 9.40348 6.31724 6.31619C9.40454 3.22889 14.41 3.22887 17.4973 6.31615ZM21.4774 18.9907C24.9368 14.3299 24.5529 7.71484 20.3258 3.48771C15.6764 -1.16167 8.13821 -1.16165 3.48881 3.48775C-1.1606 8.13716 -1.16062 15.6753 3.48876 20.3247C7.55626 24.3922 13.8347 24.9012 18.4556 21.8518L24.3201 27.7162C25.1323 28.5285 26.4492 28.5285 27.2615 27.7162C28.0737 26.904 28.0737 25.5871 27.2615 24.7748L21.4774 18.9907Z" fill="#9B9B9B"/>
</svg>
