<svg width="11" height="12" viewBox="0 0 11 12" fill="none" xmlns="http://www.w3.org/2000/svg">
<path d="M0 10.6606V6.28702H4.19547V10.6606H0ZM1.04887 9.5672H3.1466V7.38041H1.04887V9.5672ZM1.83552 4.92027L4.7199 0L7.60429 4.92027H1.83552ZM3.69726 3.82688H5.74255L4.7199 2.10478L3.69726 3.82688ZM10.2658 12L8.87604 10.5513C8.69249 10.6788 8.49364 10.7745 8.2795 10.8383C8.06536 10.9021 7.84029 10.9339 7.60429 10.9339C6.94875 10.9339 6.39154 10.6948 5.93266 10.2164C5.47378 9.73804 5.24434 9.15718 5.24434 8.4738C5.24434 7.79043 5.47378 7.20957 5.93266 6.73121C6.39154 6.25285 6.94875 6.01367 7.60429 6.01367C8.25983 6.01367 8.81704 6.25285 9.27592 6.73121C9.7348 7.20957 9.96424 7.79043 9.96424 8.4738C9.96424 8.71071 9.93365 8.94077 9.87247 9.16401C9.81128 9.38724 9.72388 9.59453 9.61025 9.78588L11 11.2346L10.2658 12ZM7.60429 9.84055C7.97139 9.84055 8.28168 9.70843 8.53516 9.44419C8.78864 9.17995 8.91538 8.85649 8.91538 8.4738C8.91538 8.09112 8.78864 7.76765 8.53516 7.50342C8.28168 7.23918 7.97139 7.10706 7.60429 7.10706C7.23719 7.10706 6.9269 7.23918 6.67342 7.50342C6.41994 7.76765 6.29321 8.09112 6.29321 8.4738C6.29321 8.85649 6.41994 9.17995 6.67342 9.44419C6.9269 9.70843 7.23719 9.84055 7.60429 9.84055Z" fill="currentColor"/>
</svg>
