<svg width="102" height="91" viewBox="0 0 102 91" fill="none" xmlns="http://www.w3.org/2000/svg">
<path d="M71.257 54.6375C71.7516 53.1616 73.2894 52.1585 74.6872 52.7703C79.3158 54.797 83.5574 57.4093 87.2597 60.5215C92.0207 64.5237 95.7977 69.2746 98.3745 74.5037C100.224 78.2566 101.429 82.2036 101.963 86.2252C102.31 88.8462 100.191 91 97.6165 91H4.38351C1.80894 91 -0.310084 88.8462 0.0374631 86.2252C0.570768 82.2036 1.7762 78.2566 3.62552 74.5037C6.20236 69.2746 9.97916 64.5237 14.7402 60.5215C18.4421 57.4096 22.6828 54.7972 27.3104 52.7706C28.7082 52.1585 30.2463 53.1616 30.7407 54.6377C33.1363 61.7878 41.2965 67.053 51 67.053C60.7034 67.0528 68.862 61.7875 71.257 54.6375Z" fill="url(#paint0_linear_800_90)"/>
<path d="M47.6908 1.40278C49.5114 -0.467594 52.4622 -0.467594 54.2828 1.40278L68.4657 15.9744L79.6396 4.49904C81.1078 2.99048 83.6184 4.05873 83.6184 6.19219V31.5423C83.6177 32.8644 82.5744 33.937 81.2875 33.937H18.3552C17.0682 33.937 16.0248 32.8646 16.0244 31.5423V6.19219C16.0244 4.05873 18.5349 2.99048 20.0032 4.49904L32.3402 17.1741L47.6908 1.40278Z" fill="url(#paint1_linear_800_90)"/>
<defs>
<linearGradient id="paint0_linear_800_90" x1="-2.37795" y1="67.4003" x2="106.997" y2="66.176" gradientUnits="userSpaceOnUse">
<stop stop-color="#C773FF"/>
<stop offset="1" stop-color="#14E757"/>
</linearGradient>
<linearGradient id="paint1_linear_800_90" x1="-2.37795" y1="67.4003" x2="106.997" y2="66.176" gradientUnits="userSpaceOnUse">
<stop stop-color="#C773FF"/>
<stop offset="1" stop-color="#14E757"/>
</linearGradient>
</defs>
</svg>
