<svg width="22" height="19" viewBox="0 0 22 19" fill="none" xmlns="http://www.w3.org/2000/svg">
<path d="M14.9615 11.4079C15.0653 11.0998 15.3882 10.8903 15.6817 11.0181C16.6536 11.4412 17.5442 11.9867 18.3215 12.6365C19.3211 13.4721 20.1142 14.4641 20.6552 15.5559C21.0435 16.3395 21.2966 17.1636 21.4086 18.0033C21.4816 18.5505 21.0367 19.0002 20.4961 19.0002H0.920384C0.379815 19.0002 -0.0651068 18.5505 0.00786594 18.0033C0.119841 17.1636 0.372941 16.3395 0.761234 15.5559C1.30228 14.4641 2.09528 13.4721 3.09493 12.6365C3.8722 11.9867 4.7626 11.4413 5.73424 11.0181C6.02773 10.8903 6.35068 11.0998 6.45448 11.408C6.95747 12.9009 8.67084 14.0002 10.7082 14.0002C12.7456 14.0002 14.4586 12.9008 14.9615 11.4079Z" fill="currentColor"/>
<path d="M10.0121 0.292892C10.3944 -0.0976307 11.014 -0.0976307 11.3962 0.292892L14.3741 3.33536L16.7203 0.939372C17.0285 0.624393 17.5557 0.847437 17.5557 1.29289V6.58583C17.5555 6.86188 17.3365 7.08583 17.0663 7.08583H3.85267C3.58244 7.08583 3.36336 6.86193 3.36328 6.58583V1.29289C3.36328 0.847437 3.89039 0.624393 4.19869 0.939372L6.78903 3.58585L10.0121 0.292892Z" fill="currentColor"/>
</svg>
