<svg width="142" height="36" viewBox="0 0 142 36" fill="none" xmlns="http://www.w3.org/2000/svg">
<path d="M38.4278 20C38.4278 23.96 35.3678 26.3 31.4378 26.3C29.2478 26.3 27.5978 25.76 26.3078 24.53C25.7978 24.05 25.5278 23.36 25.5278 22.7C25.5278 21.65 26.2778 20.72 27.3878 20.72C28.0178 20.72 28.4978 20.99 28.8278 21.38C29.6978 22.43 30.6278 22.85 31.6778 22.85C32.9678 22.85 33.8978 22.07 33.8978 20.9C33.8978 19.49 33.0878 18.86 30.4178 17.45C27.9878 16.16 25.7978 14.42 25.7978 11.48C25.7978 7.7 28.8578 5.6 32.4878 5.6C34.5878 5.6 36.3278 6.17 37.3778 7.25C37.8278 7.7 38.0678 8.27 38.0678 8.84C38.0678 9.92 37.3778 10.76 36.2378 10.76C34.5278 10.76 34.6778 8.96 32.3978 8.96C31.0478 8.96 30.2678 9.8 30.2678 10.67C30.2678 11.87 31.1678 12.44 33.7478 13.88C36.1478 15.23 38.4278 16.88 38.4278 20ZM57.3006 17.75C57.3006 22.7 53.7006 26.3 48.7206 26.3C43.7706 26.3 40.1706 22.7 40.1706 17.75C40.1706 12.8 43.7706 9.2 48.7206 9.2C53.7006 9.2 57.3006 12.8 57.3006 17.75ZM52.8306 17.75C52.8306 14.9 51.1506 12.8 48.7206 12.8C46.2906 12.8 44.6106 14.9 44.6106 17.75C44.6106 20.63 46.2906 22.7 48.7206 22.7C51.1506 22.7 52.8306 20.63 52.8306 17.75ZM66.362 24.5C66.362 25.43 65.762 26 64.832 26H62.582C60.392 26 59.402 24.47 59.402 22.34V3.68C59.402 2.36 60.212 1.46 61.592 1.46C62.972 1.46 63.782 2.36 63.782 3.68V22.25C63.782 22.79 63.992 23 64.502 23H64.832C65.762 23 66.362 23.54 66.362 24.5ZM84.6346 17.75C84.6346 22.7 81.0346 26.3 76.0546 26.3C71.1046 26.3 67.5046 22.7 67.5046 17.75C67.5046 12.8 71.1046 9.2 76.0546 9.2C81.0346 9.2 84.6346 12.8 84.6346 17.75ZM80.1646 17.75C80.1646 14.9 78.4846 12.8 76.0546 12.8C73.6246 12.8 71.9446 14.9 71.9446 17.75C71.9446 20.63 73.6246 22.7 76.0546 22.7C78.4846 22.7 80.1646 20.63 80.1646 17.75ZM104.256 24.02C104.256 24.02 104.256 24.05 104.256 24.08C104.256 25.37 103.416 26.12 102.186 26.12C100.926 26.12 100.146 25.34 100.116 24.11L99.936 17.21C99.936 17.06 99.846 17 99.756 17C99.666 17 99.576 17.06 99.546 17.15L97.206 24.41C96.936 25.28 96.426 26.15 95.196 26.15C93.996 26.15 93.486 25.28 93.216 24.41L90.906 17.15C90.876 17.06 90.786 17 90.696 17C90.606 17 90.516 17.09 90.516 17.21L90.336 24.44C90.306 25.49 89.556 26.15 88.506 26.15C88.506 26.15 88.476 26.15 88.446 26.15C87.396 26.12 86.736 25.43 86.736 24.41C86.736 24.38 86.736 24.35 86.736 24.35C86.736 24.32 86.736 24.32 86.736 24.32L87.276 12.32C87.366 10.61 88.476 9.41 90.096 9.41C91.806 9.41 92.676 10.43 93.186 12.05L95.316 18.86C95.376 19.01 95.466 19.07 95.556 19.07C95.646 19.07 95.736 19.01 95.766 18.86L97.896 12.05C98.406 10.43 99.246 9.41 100.956 9.41C102.576 9.41 103.686 10.61 103.746 12.32L104.256 23.96C104.256 23.96 104.256 23.99 104.256 24.02ZM123.482 17.75C123.482 22.7 119.882 26.3 114.902 26.3C109.952 26.3 106.352 22.7 106.352 17.75C106.352 12.8 109.952 9.2 114.902 9.2C119.882 9.2 123.482 12.8 123.482 17.75ZM119.012 17.75C119.012 14.9 117.332 12.8 114.902 12.8C112.472 12.8 110.792 14.9 110.792 17.75C110.792 20.63 112.472 22.7 114.902 22.7C117.332 22.7 119.012 20.63 119.012 17.75ZM139.564 11.24V23.69C139.564 25.19 138.694 26.21 137.224 26.21C135.754 26.21 135.064 25.37 134.494 24.53L129.694 17.3C129.604 17.21 129.514 17.15 129.454 17.15C129.304 17.15 129.214 17.27 129.214 17.48L129.184 24.32C129.184 25.43 128.524 26.15 127.384 26.15C126.274 26.15 125.584 25.43 125.584 24.32V11.84C125.584 10.34 126.454 9.32 127.954 9.32C129.394 9.32 130.114 10.19 130.654 11L135.454 18.14C135.514 18.23 135.634 18.29 135.694 18.29C135.844 18.29 135.934 18.17 135.934 17.96V11.24C135.934 10.13 136.624 9.41 137.764 9.41C138.874 9.41 139.564 10.16 139.564 11.24Z" fill="currentColor"/>
<path d="M14.9615 17.4079C15.0653 17.0998 15.3882 16.8903 15.6817 17.0181C16.6536 17.4412 17.5442 17.9867 18.3215 18.6365C19.3211 19.4721 20.1142 20.4641 20.6552 21.5559C21.0435 22.3395 21.2966 23.1636 21.4086 24.0033C21.4816 24.5505 21.0367 25.0002 20.4961 25.0002H0.920384C0.379815 25.0002 -0.0651068 24.5505 0.00786594 24.0033C0.119841 23.1636 0.372941 22.3395 0.761234 21.5559C1.30228 20.4641 2.09528 19.4721 3.09493 18.6365C3.8722 17.9867 4.7626 17.4413 5.73424 17.0181C6.02773 16.8903 6.35068 17.0998 6.45448 17.408C6.95747 18.9009 8.67084 20.0002 10.7082 20.0002C12.7456 20.0002 14.4586 18.9008 14.9615 17.4079Z" fill="currentColor"/>
<path d="M10.0121 6.29289C10.3944 5.90237 11.014 5.90237 11.3962 6.29289L14.3741 9.33536L16.7203 6.93937C17.0285 6.62439 17.5557 6.84744 17.5557 7.29289V12.5858C17.5555 12.8619 17.3365 13.0858 17.0663 13.0858H3.85267C3.58244 13.0858 3.36336 12.8619 3.36328 12.5858V7.29289C3.36328 6.84744 3.89039 6.62439 4.19869 6.93937L6.78903 9.58585L10.0121 6.29289Z" fill="currentColor"/>
</svg>
